<svg width="1024" height="655" viewBox="0 0 1024 655" fill="none" xmlns="http://www.w3.org/2000/svg">
  <defs>
    <filter id="shadow" x="-20%" y="-20%" width="140%" height="140%">
      <feDropShadow dx="0" dy="8" stdDeviation="12" flood-color="#071c2b" flood-opacity="0.18"/>
    </filter>
    <marker id="arrowWhite" markerWidth="16" markerHeight="16" refX="13" refY="8" orient="auto" markerUnits="userSpaceOnUse">
      <path d="M2 2L13 8L2 14" fill="none" stroke="#F5F7FA" stroke-width="2.5" stroke-linecap="round" stroke-linejoin="round"/>
    </marker>
    <style>
      .bg { fill: #103f67; }
      .step { fill: #c8e2f3; stroke: #e2a11a; stroke-width: 2; }
      .center { fill: #f3a11a; stroke: #f9c15b; stroke-width: 2; }
      .stepText {
        fill: #0a2233;
        font-family: Arial, Helvetica, sans-serif;
        font-size: 25px;
        font-weight: 700;
      }
      .centerText {
        fill: #0a2233;
        font-family: Arial, Helvetica, sans-serif;
        font-size: 22px;
        font-weight: 700;
      }
      .arrow {
        fill: none;
        stroke: #F5F7FA;
        stroke-width: 4;
        stroke-linecap: round;
        stroke-linejoin: round;
        marker-end: url(#arrowWhite);
      }
      .accent {
        fill: #f3a11a;
        opacity: 0.14;
      }
    </style>
  </defs>

  <rect class="bg" width="1024" height="655" rx="0"/>
  <circle class="accent" cx="512" cy="328" r="208"/>
  <circle class="accent" cx="512" cy="328" r="150"/>

  <path class="arrow" d="M648 136 A 346 228 0 0 1 784 206"/>
  <path class="arrow" d="M858 322 A 346 228 0 0 1 800 440"/>
  <path class="arrow" d="M610 522 A 346 228 0 0 1 414 522"/>
  <path class="arrow" d="M228 442 A 346 228 0 0 1 170 324"/>
  <path class="arrow" d="M280 206 A 346 228 0 0 1 446 136"/>

  <g filter="url(#shadow)">
    <rect class="step" x="374" y="63" width="276" height="122" rx="10"/>
    <rect class="step" x="721" y="200" width="259" height="122" rx="10"/>
    <rect class="step" x="608" y="444" width="291" height="122" rx="10"/>
    <rect class="step" x="126" y="443" width="285" height="122" rx="10"/>
    <rect class="step" x="48" y="200" width="282" height="122" rx="10"/>
    <rect class="center" x="378" y="247" width="268" height="138" rx="10"/>
  </g>

  <text class="stepText" text-anchor="middle">
    <tspan x="512" y="113">Project Request</tspan>
    <tspan x="512" y="145">Submission</tspan>
  </text>

  <text class="stepText" text-anchor="middle">
    <tspan x="850" y="250">CCBR Review and</tspan>
    <tspan x="850" y="282">Assignment</tspan>
  </text>

  <text class="stepText" text-anchor="middle">
    <tspan x="753" y="492">Data Transfer &amp;</tspan>
    <tspan x="753" y="524">Quality Control</tspan>
  </text>

  <text class="stepText" text-anchor="middle">
    <tspan x="269" y="491">Data Analysis and</tspan>
    <tspan x="269" y="523">Interpretation</tspan>
  </text>

  <text class="stepText" text-anchor="middle">
    <tspan x="189" y="244">Results Delivery &amp;</tspan>
    <tspan x="189" y="276">Publication Support</tspan>
  </text>

  <text class="centerText" text-anchor="middle">
    <tspan x="512" y="296">Project Tracking</tspan>
    <tspan x="512" y="327">&amp; Communications</tspan>
  </text>
</svg>
